<?xml version="1.0" standalone="no"?>
<!DOCTYPE svg PUBLIC "-//W3C//DTD SVG 20010904//EN"
 "http://www.w3.org/TR/2001/REC-SVG-20010904/DTD/svg10.dtd">
<svg version="1.0" xmlns="http://www.w3.org/2000/svg"
 width="512.000000pt" height="512.000000pt" viewBox="0 0 512.000000 512.000000"
 preserveAspectRatio="xMidYMid meet">

<g transform="translate(0.000000,512.000000) scale(0.100000,-0.100000)"
fill="#000000" stroke="none">
<path d="M361 5109 c-172 -34 -318 -182 -351 -358 -14 -74 -14 -4308 0 -4382
34 -180 179 -325 359 -359 74 -14 3088 -14 3162 0 180 34 325 179 359 359 5
30 10 140 10 245 l0 191 -36 -42 c-45 -54 -142 -127 -224 -168 -117 -58 -624
-274 -670 -284 -195 -45 -405 59 -497 247 -37 74 -38 79 -38 186 1 102 6 134
69 391 37 154 74 305 83 335 19 69 75 181 118 240 19 25 295 353 614 730 l580
685 1 398 0 397 -541 0 c-533 0 -542 0 -579 21 -21 12 -47 38 -59 59 -21 37
-21 46 -21 579 l0 541 -1147 -1 c-632 -1 -1168 -5 -1192 -10z m1963 -912 c100
-57 100 -197 0 -254 l-39 -23 -784 0 c-779 0 -783 0 -821 21 -44 25 -80 83
-80 129 0 45 36 104 79 128 36 21 40 22 821 22 l785 0 39 -23z m900 -910 c100
-57 100 -197 0 -254 l-39 -23 -1234 0 -1233 0 -38 21 c-44 25 -80 83 -80 129
0 45 36 104 79 128 l36 22 1235 0 1235 0 39 -23z m-600 -900 c100 -57 100
-197 0 -254 l-39 -23 -934 0 c-932 0 -933 0 -971 21 -44 25 -80 83 -80 129 0
45 36 104 79 128 36 22 38 22 971 22 l935 0 39 -23z m-600 -900 c100 -57 100
-197 0 -254 l-39 -23 -634 0 c-627 0 -634 0 -671 21 -44 25 -80 83 -80 129 0
45 36 104 79 128 36 21 43 22 671 22 l635 0 39 -23z"/>
<path d="M3000 4660 l0 -440 446 0 445 0 -6 23 c-3 12 -22 54 -41 94 -33 68
-52 89 -358 378 -177 168 -338 315 -356 326 -18 11 -55 29 -81 40 l-49 19 0
-440z"/>
<path d="M4580 3320 c-108 -23 -219 -102 -317 -226 l-32 -41 339 -284 c186
-156 343 -284 348 -284 13 0 98 105 137 171 143 237 27 557 -234 644 -75 25
-175 33 -241 20z"/>
<path d="M3634 2348 c-219 -260 -405 -480 -412 -489 -11 -15 28 -51 328 -303
187 -157 344 -286 348 -285 10 1 817 959 819 973 2 9 -654 565 -676 574 -5 1
-188 -210 -407 -470z"/>
<path d="M2971 1563 c-22 -26 -51 -70 -65 -99 -30 -60 -176 -657 -176 -716 0
-75 50 -131 128 -144 36 -6 65 4 279 96 382 164 416 182 484 247 33 32 65 66
70 75 8 14 -48 65 -331 302 -187 158 -342 286 -345 286 -2 0 -21 -21 -44 -47z"/>
</g>
</svg>
